# xmcd CD database file
#
# Track frame offsets:
#	150
#	38217
#	72184
#	105042
#	124533
#	163078
#	195124
#	234084
#	264116
#	308425
#
# Disc length: 4442 seconds
#
# Revision: 0
# Processed by: cddbd v1.5.2PL0 Copyright (c) Steve Scherf et al.
# Submitted via: CDex 1.70beta2
#
DISCID=6411580a
DTITLE=JAZZANOVA - Upsidedown
DYEAR=2011
DGENRE=Jazz
TTITLE0=Little Bird (Alex Barck Remix)
TTITLE1=Let Me Show Ya (Henrik Schwarz Remix)
TTITLE2=Glow And Glare (ￂme Remix)
TTITLE3=I Can See (Ye Solar Remix)
TTITLE4=Dance The Dance (Atjazz Remix)
TTITLE5=Lie (Soldiers Of House Remix)
TTITLE6=Boom Clicky Boom Klack (Mr. Scruff Vocal  Remix)
TTITLE7=Look What You're Doin' To Me (Motor City Drum Ensemble Remix)
TTITLE8=I Can See (Midnight Marauders House Your Father Dub)
TTITLE9=Lucky Girl (Stevo Merse Remix feat. Neve Naive)
EXTD=YEAR: 2011
EXTT0=
EXTT1=
EXTT2=
EXTT3=
EXTT4=
EXTT5=
EXTT6=
EXTT7=
EXTT8=
EXTT9=
PLAYORDER=
